<svg width="15" height="18" viewBox="0 0 15 18" fill="none" xmlns="http://www.w3.org/2000/svg">
<path d="M8.87177 15.0257H9.53844V14.359H8.87177V15.0257ZM5.58972 15.0257V14.359H4.92306V15.0257H5.58972ZM12.1538 11.7436H11.4871V12.0198L11.6824 12.215L12.1538 11.7436ZM8.4615 2.4554H7.79483V2.98215L8.30729 3.10399L8.4615 2.4554ZM5.99996 2.4554L6.15366 3.10411L6.66663 2.98257V2.4554H5.99996ZM2.30765 11.7436L2.77906 12.215L2.97432 12.0198V11.7436H2.30765ZM0.666626 13.3846L0.195221 12.9132L-4.071e-05 13.1085V13.3846H0.666626ZM0.666626 14.2051H-4.071e-05V14.8718H0.666626V14.2051ZM13.7948 14.2051V14.8718H14.4615V14.2051H13.7948ZM13.7948 13.3846H14.4615V13.1085L14.2662 12.9132L13.7948 13.3846ZM7.23075 16.6667V17.3333C8.5015 17.3333 9.53844 16.2964 9.53844 15.0257H8.87177H8.20511C8.20511 15.56 7.76512 16 7.23075 16V16.6667ZM8.87177 15.0257V14.359H5.58972V15.0257V15.6923H8.87177V15.0257ZM5.58972 15.0257H4.92306C4.92306 16.2942 5.94962 17.3333 7.23075 17.3333V16.6667V16C6.69034 16 6.25639 15.5622 6.25639 15.0257H5.58972ZM12.1538 11.7436H12.8205V7.64105H12.1538H11.4871V11.7436H12.1538ZM12.1538 7.64105H12.8205C12.8205 4.88898 11.3307 2.45233 8.61571 1.80682L8.4615 2.4554L8.30729 3.10399C10.2857 3.57437 11.4871 5.35516 11.4871 7.64105H12.1538ZM8.4615 2.4554H9.12816V1.89746H8.4615H7.79483V2.4554H8.4615ZM8.4615 1.89746H9.12816C9.12816 0.848241 8.27994 2.03252e-05 7.23073 2.03252e-05V0.666687V1.33335C7.54356 1.33335 7.79483 1.58462 7.79483 1.89746H8.4615ZM7.23073 0.666687V2.03252e-05C6.18151 2.03252e-05 5.33329 0.848241 5.33329 1.89746H5.99996H6.66663C6.66663 1.58462 6.91789 1.33335 7.23073 1.33335V0.666687ZM5.99996 1.89746H5.33329V2.4554H5.99996H6.66663V1.89746H5.99996ZM5.99996 2.4554L5.84626 1.8067C3.12217 2.45213 1.64098 4.88137 1.64098 7.64105H2.30765H2.97432C2.97432 5.34636 4.168 3.57458 6.15366 3.10411L5.99996 2.4554ZM2.30765 7.64105H1.64098V11.7436H2.30765H2.97432V7.64105H2.30765ZM2.30765 11.7436L1.83625 11.2722L0.195221 12.9132L0.666626 13.3846L1.13803 13.856L2.77906 12.215L2.30765 11.7436ZM0.666626 13.3846H-4.071e-05V14.2051H0.666626H1.33329V13.3846H0.666626ZM0.666626 14.2051V14.8718H13.7948V14.2051V13.5385H0.666626V14.2051ZM13.7948 14.2051H14.4615V13.3846H13.7948H13.1282V14.2051H13.7948ZM13.7948 13.3846L14.2662 12.9132L12.6252 11.2722L12.1538 11.7436L11.6824 12.215L13.3234 13.856L13.7948 13.3846Z" fill="#6F6F6F"/>
</svg>
