<svg width="11" height="11" viewBox="0 0 11 11" fill="none" xmlns="http://www.w3.org/2000/svg">
<path d="M5.5 11C4.56667 11 3.70833 10.7875 2.925 10.3625C2.14167 9.9375 1.5 9.37083 1 8.6625V10H0V7H3V8H1.7625C2.1625 8.6 2.68958 9.08333 3.34375 9.45C3.99792 9.81667 4.71667 10 5.5 10C6.125 10 6.71042 9.88125 7.25625 9.64375C7.80208 9.40625 8.27708 9.08542 8.68125 8.68125C9.08542 8.27708 9.40625 7.80208 9.64375 7.25625C9.88125 6.71042 10 6.125 10 5.5H11C11 6.25833 10.8563 6.97083 10.5688 7.6375C10.2813 8.30417 9.8875 8.8875 9.3875 9.3875C8.8875 9.8875 8.30417 10.2813 7.6375 10.5688C6.97083 10.8563 6.25833 11 5.5 11ZM0 5.5C0 4.74167 0.14375 4.02917 0.43125 3.3625C0.71875 2.69583 1.1125 2.1125 1.6125 1.6125C2.1125 1.1125 2.69583 0.71875 3.3625 0.43125C4.02917 0.14375 4.74167 0 5.5 0C6.43333 0 7.29167 0.2125 8.075 0.6375C8.85833 1.0625 9.5 1.62917 10 2.3375V1H11V4H8V3H9.2375C8.8375 2.4 8.31042 1.91667 7.65625 1.55C7.00208 1.18333 6.28333 1 5.5 1C4.875 1 4.28958 1.11875 3.74375 1.35625C3.19792 1.59375 2.72292 1.91458 2.31875 2.31875C1.91458 2.72292 1.59375 3.19792 1.35625 3.74375C1.11875 4.28958 1 4.875 1 5.5H0Z" fill="#FD2E97"/>
</svg>
