<svg width="20" height="20" viewBox="0 0 20 20" fill="none" xmlns="http://www.w3.org/2000/svg">
<path fill-rule="evenodd" clip-rule="evenodd" d="M13.8248 6.31787L8.33317 11.8095L5.3415 8.8262L4.1665 10.0012L8.33317 14.1679L14.9998 7.5012L13.8248 6.31787ZM9.99984 1.66748C5.39984 1.66748 1.6665 5.40081 1.6665 10.0008C1.6665 14.6008 5.39984 18.3341 9.99984 18.3341C14.5998 18.3341 18.3332 14.6008 18.3332 10.0008C18.3332 5.40081 14.5998 1.66748 9.99984 1.66748ZM9.9998 16.6678C6.31646 16.6678 3.33313 13.6845 3.33313 10.0011C3.33313 6.31781 6.31646 3.33447 9.9998 3.33447C13.6831 3.33447 16.6665 6.31781 16.6665 10.0011C16.6665 13.6845 13.6831 16.6678 9.9998 16.6678Z" fill="#FD2E97"/>
</svg>
