<svg width="23" height="23" viewBox="0 0 23 23" fill="none" xmlns="http://www.w3.org/2000/svg">
<path d="M8.62482 13.5C9.73575 13.5 11.4687 13.7879 12.8953 14.3594C13.6075 14.6447 14.1727 14.9729 14.5418 15.3135C14.9032 15.6471 14.9998 15.9148 14.9998 16.125V17.8125H2.24982V16.125C2.24984 15.9148 2.34639 15.6471 2.70782 15.3135C3.07693 14.9729 3.64216 14.6447 4.35431 14.3594C5.78091 13.7879 7.51389 13.5 8.62482 13.5ZM19.0457 14.4951C20.1369 15.0639 20.4373 15.5918 20.4373 15.9375V17.625H18.9373V15.9375C18.9373 15.348 18.837 14.8071 18.6639 14.3105C18.7955 14.3697 18.9231 14.4312 19.0457 14.4951ZM8.43732 4.875C9.88703 4.875 11.0623 6.05026 11.0623 7.5C11.0623 8.94971 9.88703 10.125 8.43732 10.125C6.98766 10.1249 5.81232 8.94966 5.81232 7.5C5.81232 6.05031 6.98765 4.8751 8.43732 4.875ZM14.6863 4.95215C15.835 5.23212 16.6873 6.26468 16.6873 7.5C16.6873 8.73523 15.8349 9.76682 14.6863 10.0469C15.0085 9.26032 15.1873 8.39996 15.1873 7.5C15.1873 6.59972 15.0087 5.73893 14.6863 4.95215Z" stroke="#6F6F6F" stroke-width="2.25"/>
</svg>
