<svg width="161" height="17" viewBox="0 0 161 17" fill="none" xmlns="http://www.w3.org/2000/svg">
<path d="M0 15.8654V0.311086H7.22636C12.2914 0.311086 15.7626 3.31084 15.7626 8.08823C15.7626 12.8656 12.2914 15.8654 7.22636 15.8654H0ZM4.32272 12.3546H7.05171C9.64971 12.3546 11.3963 10.7769 11.3963 8.08823C11.3963 5.39956 9.64971 3.82191 7.05171 3.82191H4.32272V12.3546Z" fill="black"/>
<path d="M29.2636 15.8654L28.0629 12.8434H21.6006L20.3999 15.8654H15.9898L22.7359 0.311086H26.9931L33.761 15.8654H29.2636ZM22.8669 9.59922H26.7966L24.8318 4.62185L22.8669 9.59922Z" fill="black"/>
<path d="M46.7321 7.75493C48.4568 8.3771 49.5265 9.71033 49.5265 11.5991C49.5265 14.2877 47.3434 15.8654 43.239 15.8654H34.9865V0.311086H42.8023C46.8194 0.311086 48.7843 1.97762 48.7843 4.37742C48.7843 5.86619 48.042 7.06609 46.7321 7.75493ZM42.2347 3.48861H39.2655V6.48836H42.2347C43.6756 6.48836 44.4179 5.97729 44.4179 4.97738C44.4179 3.99968 43.6756 3.48861 42.2347 3.48861ZM42.8896 12.6879C44.3742 12.6879 45.1602 12.1768 45.1602 11.1102C45.1602 10.0436 44.3742 9.53256 42.8896 9.53256H39.2655V12.6879H42.8896Z" fill="black"/>
<path d="M59.4722 16.1765C54.5818 16.1765 50.9796 12.7545 50.9796 8.08823C50.9796 3.42195 54.5818 0 59.4722 0C64.3625 0 67.9648 3.42195 67.9648 8.08823C67.9648 12.7545 64.3625 16.1765 59.4722 16.1765ZM59.4722 12.5323C61.7864 12.5323 63.5984 10.7769 63.5984 8.08823C63.5984 5.39956 61.7864 3.64415 59.4722 3.64415C57.158 3.64415 55.3459 5.39956 55.3459 8.08823C55.3459 10.7769 57.158 12.5323 59.4722 12.5323Z" fill="#FF2E98"/>
<path d="M88 15.8654H84.0266L83.9829 7.62161L80.0532 14.3322H78.132L74.2241 7.84381V15.8654H70.2288V0.311086H73.7874L79.1581 9.28814L84.3977 0.311086H87.9563L88 15.8654Z" fill="black"/>
<path d="M108.386 15.9576L107.447 13.6344H102.39L101.451 15.9576H98L103.278 4H106.61L111.905 15.9576H108.386ZM103.381 11.1404H106.456L104.918 7.31398L103.381 11.1404Z" fill="#101010"/>
<path d="M112.864 15.9576V4H118.518C122.481 4 125.197 6.30612 125.197 9.97882C125.197 13.6515 122.481 15.9576 118.518 15.9576H112.864ZM116.246 13.2586H118.382C120.414 13.2586 121.781 12.0458 121.781 9.97882C121.781 7.91186 120.414 6.69901 118.382 6.69901H116.246V13.2586Z" fill="#101010"/>
<path d="M140.882 15.9576H137.773L137.739 9.62009L134.664 14.779H133.161L130.103 9.79092V15.9576H126.977V4H129.761L133.964 10.9013L138.063 4H140.848L140.882 15.9576Z" fill="#101010"/>
<path d="M143.275 15.9576V4H146.657V15.9576H143.275Z" fill="#101010"/>
<path d="M157.127 4H160.441V15.9576H157.656L152.378 9.58593V15.9576H149.064V4H151.848L157.127 10.3717V4Z" fill="#101010"/>
</svg>
