<svg width="20" height="20" viewBox="0 0 20 20" fill="none" xmlns="http://www.w3.org/2000/svg">
<path d="M10 13.375C11.3612 13.375 13.469 13.7253 15.208 14.4219C16.0766 14.7698 16.7823 15.177 17.2529 15.6113C17.7159 16.0387 17.875 16.4151 17.875 16.75V17.875H2.125V16.75C2.125 16.4151 2.28407 16.0387 2.74707 15.6113C3.21772 15.177 3.92339 14.7698 4.79199 14.4219C6.53099 13.7253 8.63879 13.375 10 13.375ZM10 2.125C11.8649 2.125 13.375 3.63507 13.375 5.5C13.375 7.36493 11.8649 8.875 10 8.875C8.13507 8.875 6.625 7.36493 6.625 5.5C6.625 3.63507 8.13507 2.125 10 2.125Z" stroke="#101010" stroke-width="2.25"/>
</svg>
