<svg width="24" height="24" viewBox="0 0 24 24" fill="none" xmlns="http://www.w3.org/2000/svg">
<path fill-rule="evenodd" clip-rule="evenodd" d="M3.4737 22.2317H20.5263C21.1516 22.2317 21.687 22.0093 22.1327 21.5644C22.5776 21.1187 22.8 20.5833 22.8 19.958V4.04224C22.8 3.41698 22.5776 2.88152 22.1327 2.43588C21.687 1.991 21.1516 1.76855 20.5263 1.76855H3.4737C2.84843 1.76855 2.31298 1.991 1.86734 2.43588C1.42245 2.88152 1.20001 3.41698 1.20001 4.04224V19.958C1.20001 20.5833 1.42245 21.1187 1.86734 21.5644C2.31298 22.0093 2.84843 22.2317 3.4737 22.2317ZM20.5263 7.45277H3.4737V4.04224H20.5263V7.45277ZM3.4737 9.72645H6.88422V19.958H3.4737V9.72645ZM20.5263 19.958H17.1158H14.8421H9.15791V9.72645H14.8421H17.1158H20.5263V19.958Z" fill="#FD2E97"/>
</svg>
