<svg width="28" height="28" viewBox="0 0 28 28" fill="none" xmlns="http://www.w3.org/2000/svg">
<path fill-rule="evenodd" clip-rule="evenodd" d="M12.5 17.1667H14.8333V19.5H12.5V17.1667ZM12.5 7.83333H14.8333V14.8333H12.5V7.83333ZM13.655 2C7.215 2 2 7.22667 2 13.6667C2 20.1067 7.215 25.3333 13.655 25.3333C20.1067 25.3333 25.3333 20.1067 25.3333 13.6667C25.3333 7.22667 20.1067 2 13.655 2ZM13.6667 23C8.51 23 4.33333 18.8233 4.33333 13.6667C4.33333 8.51 8.51 4.33333 13.6667 4.33333C18.8233 4.33333 23 8.51 23 13.6667C23 18.8233 18.8233 23 13.6667 23Z" fill="black"/>
</svg>
