<svg width="13" height="13" viewBox="0 0 13 13" fill="none" xmlns="http://www.w3.org/2000/svg">
<path fill-rule="evenodd" clip-rule="evenodd" d="M5.85001 8.45008H7.15001V9.75008H5.85001V8.45008ZM5.85001 3.24992H7.15001V7.14992H5.85001V3.24992ZM6.4935 0C2.9055 0 0 2.912 0 6.5C0 10.088 2.9055 13 6.4935 13C10.088 13 13 10.088 13 6.5C13 2.912 10.088 0 6.4935 0ZM6.50002 11.6999C3.62702 11.6999 1.30002 9.37292 1.30002 6.49992C1.30002 3.62692 3.62702 1.29992 6.50002 1.29992C9.37302 1.29992 11.7 3.62692 11.7 6.49992C11.7 9.37292 9.37302 11.6999 6.50002 11.6999Z" fill="#FD2E97"/>
</svg>
