<svg width="15" height="16" viewBox="0 0 15 16" fill="none" xmlns="http://www.w3.org/2000/svg">
<path d="M7.02734 0.777771C7.0767 0.740751 7.14496 0.740786 7.19434 0.777771L13.417 5.44476C13.4516 5.47092 13.4725 5.51171 13.4727 5.55511V14.8891C13.4725 14.9657 13.4096 15.0278 13.333 15.0278H9.77734C9.70091 15.0275 9.63879 14.9656 9.63867 14.8891V10.4448C9.63867 9.53963 8.90513 8.80511 8 8.80511H6.22266C5.31752 8.80511 4.58301 9.53963 4.58301 10.4448V14.8891C4.58289 14.9657 4.52097 15.0278 4.44434 15.0278H0.888672C0.812138 15.0277 0.750117 14.9656 0.75 14.8891V5.55511C0.750136 5.5116 0.770861 5.47091 0.805664 5.44476L7.02734 0.777771Z" stroke="#6F6F6F" stroke-width="1.5"/>
</svg>
