<svg width="15" height="16" viewBox="0 0 15 16" fill="none" xmlns="http://www.w3.org/2000/svg">
<path d="M0.88889 15.7778C0.39797 15.7778 0 15.3798 0 14.8889V5.55555C0 5.27577 0.131728 5.01231 0.355556 4.84444L6.57778 0.177771C6.89383 -0.0592658 7.32839 -0.059266 7.64444 0.177771L13.8667 4.84444C14.0905 5.01231 14.2222 5.27576 14.2222 5.55555V14.8889C14.2222 15.3798 13.8243 15.7778 13.3333 15.7778H9.77778C9.28686 15.7778 8.88889 15.3798 8.88889 14.8889V10.4444C8.88889 9.95352 8.49092 9.55555 8 9.55555H6.22222C5.7313 9.55555 5.33333 9.95352 5.33333 10.4444V14.8889C5.33333 15.3798 4.93536 15.7778 4.44444 15.7778H0.88889Z" fill="#FD2E97"/>
</svg>
