<svg width="182" height="42" viewBox="0 0 182 42" fill="none" xmlns="http://www.w3.org/2000/svg">
<path d="M24.3017 14.9841V0H30.1435V26.9889C30.0851 29.7735 29.384 32.2952 28.0404 34.554C26.6968 36.7933 24.8859 38.5848 22.6076 39.9284C20.3488 41.272 17.8368 41.9438 15.0717 41.9438C12.3066 41.9438 9.77521 41.272 7.47745 39.9284C5.19917 38.5653 3.37848 36.7447 2.01541 34.4664C0.671802 32.1686 0 29.6372 0 26.8721C0 24.107 0.671802 21.5853 2.01541 19.307C3.37848 17.0093 5.19917 15.1886 7.47745 13.845C9.77521 12.4819 12.3066 11.8004 15.0717 11.8004C16.8048 11.8004 18.4502 12.0827 20.008 12.6474C21.5853 13.1926 23.0165 13.9715 24.3017 14.9841ZM15.0717 36.1021C17.6226 36.1021 19.7938 35.2063 21.5853 33.4149C23.3962 31.6039 24.3017 29.423 24.3017 26.8721C24.3017 24.3212 23.3962 22.15 21.5853 20.3585C19.7938 18.5476 17.6226 17.6421 15.0717 17.6421C12.5208 17.6421 10.3399 18.5476 8.52897 20.3585C6.7375 22.15 5.84176 24.3212 5.84176 26.8721C5.84176 29.423 6.7375 31.6039 8.52897 33.4149C10.3399 35.2063 12.5208 36.1021 15.0717 36.1021Z" fill="#101010"/>
<path d="M46.9677 11.8004C49.7134 11.8004 52.2253 12.4722 54.5036 13.8158C56.7819 15.1594 58.5928 16.9606 59.9364 19.2194C61.28 21.4587 61.9811 23.9707 62.0395 26.7553V42.0022H56.1977V38.7893C54.9125 39.7824 53.4813 40.5613 51.904 41.126C50.3462 41.6712 48.7008 41.9438 46.9677 41.9438C44.2026 41.9438 41.6712 41.272 39.3735 39.9284C37.0952 38.5653 35.2745 36.7447 33.9114 34.4664C32.5678 32.1881 31.896 29.6567 31.896 26.8721C31.896 24.107 32.5678 21.5853 33.9114 19.307C35.2745 17.0287 37.0952 15.208 39.3735 13.845C41.6712 12.4819 44.2026 11.8004 46.9677 11.8004ZM46.9677 36.1021C49.5186 36.1021 51.6898 35.2063 53.4813 33.4149C55.2922 31.6039 56.1977 29.423 56.1977 26.8721C56.1977 24.3407 55.2922 22.1695 53.4813 20.3585C51.6898 18.5476 49.5186 17.6421 46.9677 17.6421C44.4168 17.6421 42.2359 18.5476 40.425 20.3585C38.6335 22.1695 37.7378 24.3407 37.7378 26.8721C37.7378 29.423 38.6335 31.6039 40.425 33.4149C42.2359 35.2063 44.4168 36.1021 46.9677 36.1021Z" fill="#101010"/>
<path d="M78.8637 11.8004C81.6483 11.8004 84.1797 12.4819 86.458 13.845C88.7363 15.1886 90.5473 17.0093 91.8909 19.307C93.2539 21.5853 93.9355 24.107 93.9355 26.8721C93.9355 29.6372 93.2539 32.1686 91.8909 34.4664C90.5473 36.7447 88.7363 38.5653 86.458 39.9284C84.1797 41.272 81.6483 41.9438 78.8637 41.9438C76.1181 41.9438 73.6062 41.272 71.3279 39.9284C69.0496 38.5848 67.2386 36.7933 65.895 34.554C64.5514 32.2952 63.8504 29.7735 63.792 26.9889V0H69.6338V14.9841C70.919 13.9715 72.3405 13.1926 73.8983 12.6474C75.4755 12.0827 77.1307 11.8004 78.8637 11.8004ZM78.8637 36.1021C81.4146 36.1021 83.5858 35.2063 85.3773 33.4149C87.1883 31.6039 88.0937 29.423 88.0937 26.8721C88.0937 24.3212 87.1883 22.15 85.3773 20.3585C83.5858 18.5476 81.4146 17.6421 78.8637 17.6421C76.3323 17.6421 74.1611 18.5476 72.3502 20.3585C70.5392 22.15 69.6338 24.3212 69.6338 26.8721C69.6338 29.423 70.5392 31.6039 72.3502 33.4149C74.1611 35.2063 76.3323 36.1021 78.8637 36.1021Z" fill="#101010"/>
<path d="M110.76 11.8004C113.544 11.8004 116.076 12.4819 118.354 13.845C120.632 15.1886 122.443 17.0093 123.787 19.307C125.15 21.5853 125.831 24.107 125.831 26.8721C125.831 29.6372 125.15 32.1686 123.787 34.4664C122.443 36.7447 120.632 38.5653 118.354 39.9284C116.076 41.272 113.544 41.9438 110.76 41.9438C107.995 41.9438 105.473 41.272 103.195 39.9284C100.916 38.5653 99.0957 36.7447 97.7326 34.4664C96.3696 32.1686 95.688 29.6372 95.688 26.8721C95.688 24.107 96.3696 21.5853 97.7326 19.307C99.0957 17.0093 100.916 15.1886 103.195 13.845C105.473 12.4819 107.995 11.8004 110.76 11.8004ZM110.76 36.1021C113.311 36.1021 115.482 35.2063 117.273 33.4149C119.084 31.6039 119.99 29.423 119.99 26.8721C119.99 24.3212 119.084 22.15 117.273 20.3585C115.482 18.5476 113.311 17.6421 110.76 17.6421C108.228 17.6421 106.057 18.5476 104.246 20.3585C102.435 22.15 101.53 24.3212 101.53 26.8721C101.53 29.423 102.435 31.6039 104.246 33.4149C106.057 35.2063 108.228 36.1021 110.76 36.1021Z" fill="#101010"/>
<path d="M166.928 11.9464C169.693 11.9464 172.215 12.6279 174.493 13.991C176.791 15.3541 178.612 17.1748 179.955 19.4531C181.318 21.7313 182 24.253 182 27.0181V41.9438H176.158V27.0181C176.158 24.4867 175.253 22.3155 173.442 20.5046C171.65 18.6936 169.479 17.7882 166.928 17.7882C164.455 17.7882 162.342 18.6352 160.59 20.3293C158.837 22.004 157.883 24.0973 157.727 26.6092C157.727 26.7455 157.727 26.8818 157.727 27.0181H157.698V41.9438H151.857V27.0181C151.857 26.8818 151.857 26.7455 151.857 26.6092C151.701 24.0973 150.747 22.004 148.994 20.3293C147.242 18.6352 145.129 17.7882 142.656 17.7882C140.105 17.7882 137.924 18.6936 136.113 20.5046C134.322 22.3155 133.426 24.4867 133.426 27.0181V41.9438H127.584V27.0181C127.584 24.253 128.256 21.7313 129.599 19.4531C130.963 17.1748 132.783 15.3541 135.061 13.991C137.34 12.6279 139.871 11.9464 142.656 11.9464C145.148 11.9464 147.446 12.5014 149.549 13.6113C151.652 14.7212 153.395 16.2206 154.777 18.1095C156.179 16.2206 157.932 14.7212 160.035 13.6113C162.138 12.5014 164.436 11.9464 166.928 11.9464Z" fill="#101010"/>
</svg>
