<svg width="180" height="22" viewBox="0 0 180 22" fill="none" xmlns="http://www.w3.org/2000/svg">
<path d="M12.2754 7.56885V0H15.2262V13.6328C15.1967 15.0393 14.8426 16.3131 14.1639 17.4541C13.4852 18.5852 12.5705 19.4902 11.4197 20.1689C10.2787 20.8475 9.00984 21.1869 7.61311 21.1869C6.21639 21.1869 4.9377 20.8475 3.77705 20.1689C2.62623 19.4803 1.70656 18.5607 1.01803 17.4098C0.339344 16.2492 0 14.9705 0 13.5738C0 12.1771 0.339344 10.9033 1.01803 9.75246C1.70656 8.5918 2.62623 7.67213 3.77705 6.99344C4.9377 6.30492 6.21639 5.96066 7.61311 5.96066C8.48852 5.96066 9.31967 6.10328 10.1066 6.38853C10.9033 6.66393 11.6262 7.05738 12.2754 7.56885ZM7.61311 18.2361C8.90164 18.2361 9.99836 17.7836 10.9033 16.8787C11.818 15.9639 12.2754 14.8623 12.2754 13.5738C12.2754 12.2852 11.818 11.1885 10.9033 10.2836C9.99836 9.36885 8.90164 8.91148 7.61311 8.91148C6.32459 8.91148 5.22295 9.36885 4.3082 10.2836C3.40328 11.1885 2.95082 12.2852 2.95082 13.5738C2.95082 14.8623 3.40328 15.9639 4.3082 16.8787C5.22295 17.7836 6.32459 18.2361 7.61311 18.2361Z" fill="black"/>
<path d="M23.7246 5.96066C25.1115 5.96066 26.3803 6.3 27.5311 6.97869C28.682 7.65738 29.5967 8.56721 30.2754 9.7082C30.9541 10.8393 31.3082 12.1082 31.3377 13.5148V21.2164H28.3869V19.5934C27.7377 20.0951 27.0148 20.4885 26.218 20.7738C25.4311 21.0492 24.6 21.1869 23.7246 21.1869C22.3279 21.1869 21.0492 20.8475 19.8885 20.1689C18.7377 19.4803 17.818 18.5607 17.1295 17.4098C16.4508 16.259 16.1115 14.9803 16.1115 13.5738C16.1115 12.1771 16.4508 10.9033 17.1295 9.75246C17.818 8.60164 18.7377 7.68197 19.8885 6.99344C21.0492 6.30492 22.3279 5.96066 23.7246 5.96066ZM23.7246 18.2361C25.0131 18.2361 26.1098 17.7836 27.0148 16.8787C27.9295 15.9639 28.3869 14.8623 28.3869 13.5738C28.3869 12.2951 27.9295 11.1984 27.0148 10.2836C26.1098 9.36885 25.0131 8.91148 23.7246 8.91148C22.4361 8.91148 21.3344 9.36885 20.4197 10.2836C19.5148 11.1984 19.0623 12.2951 19.0623 13.5738C19.0623 14.8623 19.5148 15.9639 20.4197 16.8787C21.3344 17.7836 22.4361 18.2361 23.7246 18.2361Z" fill="black"/>
<path d="M39.8361 5.96066C41.2426 5.96066 42.5213 6.30492 43.6721 6.99344C44.823 7.67213 45.7377 8.5918 46.4164 9.75246C47.1049 10.9033 47.4492 12.1771 47.4492 13.5738C47.4492 14.9705 47.1049 16.2492 46.4164 17.4098C45.7377 18.5607 44.823 19.4803 43.6721 20.1689C42.5213 20.8475 41.2426 21.1869 39.8361 21.1869C38.4492 21.1869 37.1803 20.8475 36.0295 20.1689C34.8787 19.4902 33.9639 18.5852 33.2852 17.4541C32.6066 16.3131 32.2525 15.0393 32.2229 13.6328V0H35.1738V7.56885C35.823 7.05738 36.541 6.66393 37.3279 6.38853C38.1246 6.10328 38.9607 5.96066 39.8361 5.96066ZM39.8361 18.2361C41.1246 18.2361 42.2213 17.7836 43.1262 16.8787C44.041 15.9639 44.4984 14.8623 44.4984 13.5738C44.4984 12.2852 44.041 11.1885 43.1262 10.2836C42.2213 9.36885 41.1246 8.91148 39.8361 8.91148C38.5574 8.91148 37.4607 9.36885 36.5459 10.2836C35.6311 11.1885 35.1738 12.2852 35.1738 13.5738C35.1738 14.8623 35.6311 15.9639 36.5459 16.8787C37.4607 17.7836 38.5574 18.2361 39.8361 18.2361Z" fill="black"/>
<path d="M55.9475 5.96066C57.3541 5.96066 58.6328 6.30492 59.7836 6.99344C60.9344 7.67213 61.8492 8.5918 62.5279 9.75246C63.2164 10.9033 63.5607 12.1771 63.5607 13.5738C63.5607 14.9705 63.2164 16.2492 62.5279 17.4098C61.8492 18.5607 60.9344 19.4803 59.7836 20.1689C58.6328 20.8475 57.3541 21.1869 55.9475 21.1869C54.5508 21.1869 53.277 20.8475 52.1262 20.1689C50.9754 19.4803 50.0557 18.5607 49.3672 17.4098C48.6787 16.2492 48.3344 14.9705 48.3344 13.5738C48.3344 12.1771 48.6787 10.9033 49.3672 9.75246C50.0557 8.5918 50.9754 7.67213 52.1262 6.99344C53.277 6.30492 54.5508 5.96066 55.9475 5.96066ZM55.9475 18.2361C57.2361 18.2361 58.3328 17.7836 59.2377 16.8787C60.1525 15.9639 60.6098 14.8623 60.6098 13.5738C60.6098 12.2852 60.1525 11.1885 59.2377 10.2836C58.3328 9.36885 57.2361 8.91148 55.9475 8.91148C54.6689 8.91148 53.5721 9.36885 52.6574 10.2836C51.7426 11.1885 51.2852 12.2852 51.2852 13.5738C51.2852 14.8623 51.7426 15.9639 52.6574 16.8787C53.5721 17.7836 54.6689 18.2361 55.9475 18.2361Z" fill="black"/>
<path d="M84.3197 6.03443C85.7164 6.03443 86.9902 6.37869 88.141 7.06721C89.3016 7.75574 90.2213 8.67541 90.9 9.82623C91.5885 10.977 91.9328 12.2508 91.9328 13.6475V21.1869H88.982V13.6475C88.982 12.3689 88.5246 11.2721 87.6098 10.3574C86.7049 9.44262 85.6082 8.98525 84.3197 8.98525C83.0705 8.98525 82.0033 9.41312 81.118 10.2689C80.2328 11.1148 79.7508 12.1721 79.6721 13.441C79.6721 13.5098 79.6721 13.5787 79.6721 13.6475H79.6574V21.1869H76.7066V13.6475C76.7066 13.5787 76.7066 13.5098 76.7066 13.441C76.6279 12.1721 76.1459 11.1148 75.2607 10.2689C74.3754 9.41312 73.3082 8.98525 72.059 8.98525C70.7705 8.98525 69.6689 9.44262 68.7541 10.3574C67.8492 11.2721 67.3967 12.3689 67.3967 13.6475V21.1869H64.4459V13.6475C64.4459 12.2508 64.7852 10.977 65.4639 9.82623C66.1525 8.67541 67.0721 7.75574 68.223 7.06721C69.3738 6.37869 70.6525 6.03443 72.059 6.03443C73.318 6.03443 74.4787 6.31475 75.541 6.87541C76.6033 7.43607 77.4836 8.19344 78.182 9.14754C78.8902 8.19344 79.7754 7.43607 80.8377 6.87541C81.9 6.31475 83.0607 6.03443 84.3197 6.03443Z" fill="black"/>
<path d="M107.941 5.96066C109.328 5.96066 110.597 6.3 111.748 6.97869C112.898 7.65738 113.813 8.56721 114.492 9.7082C115.17 10.8393 115.525 12.1082 115.554 13.5148V21.2164H112.603V19.5934C111.954 20.0951 111.231 20.4885 110.434 20.7738C109.648 21.0492 108.816 21.1869 107.941 21.1869C106.544 21.1869 105.266 20.8475 104.105 20.1689C102.954 19.4803 102.034 18.5607 101.346 17.4098C100.667 16.259 100.328 14.9803 100.328 13.5738C100.328 12.1771 100.667 10.9033 101.346 9.75246C102.034 8.60164 102.954 7.68197 104.105 6.99344C105.266 6.30492 106.544 5.96066 107.941 5.96066ZM107.941 18.2361C109.23 18.2361 110.326 17.7836 111.231 16.8787C112.146 15.9639 112.603 14.8623 112.603 13.5738C112.603 12.2951 112.146 11.1984 111.231 10.2836C110.326 9.36885 109.23 8.91148 107.941 8.91148C106.652 8.91148 105.551 9.36885 104.636 10.2836C103.731 11.1984 103.279 12.2951 103.279 13.5738C103.279 14.8623 103.731 15.9639 104.636 16.8787C105.551 17.7836 106.652 18.2361 107.941 18.2361Z" fill="black"/>
<path d="M128.715 7.56885V0H131.666V13.6328C131.636 15.0393 131.282 16.3131 130.603 17.4541C129.925 18.5852 129.01 19.4902 127.859 20.1689C126.718 20.8475 125.449 21.1869 124.052 21.1869C122.656 21.1869 121.377 20.8475 120.216 20.1689C119.066 19.4803 118.146 18.5607 117.457 17.4098C116.779 16.2492 116.439 14.9705 116.439 13.5738C116.439 12.1771 116.779 10.9033 117.457 9.75246C118.146 8.5918 119.066 7.67213 120.216 6.99344C121.377 6.30492 122.656 5.96066 124.052 5.96066C124.928 5.96066 125.759 6.10328 126.546 6.38853C127.343 6.66393 128.066 7.05738 128.715 7.56885ZM124.052 18.2361C125.341 18.2361 126.438 17.7836 127.343 16.8787C128.257 15.9639 128.715 14.8623 128.715 13.5738C128.715 12.2852 128.257 11.1885 127.343 10.2836C126.438 9.36885 125.341 8.91148 124.052 8.91148C122.764 8.91148 121.662 9.36885 120.748 10.2836C119.843 11.1885 119.39 12.2852 119.39 13.5738C119.39 14.8623 119.843 15.9639 120.748 16.8787C121.662 17.7836 122.764 18.2361 124.052 18.2361Z" fill="black"/>
<path d="M152.425 6.03443C153.821 6.03443 155.095 6.37869 156.246 7.06721C157.407 7.75574 158.326 8.67541 159.005 9.82623C159.693 10.977 160.038 12.2508 160.038 13.6475V21.1869H157.087V13.6475C157.087 12.3689 156.63 11.2721 155.715 10.3574C154.81 9.44262 153.713 8.98525 152.425 8.98525C151.175 8.98525 150.108 9.41312 149.223 10.2689C148.338 11.1148 147.856 12.1721 147.777 13.441C147.777 13.5098 147.777 13.5787 147.777 13.6475H147.762V21.1869H144.811V13.6475C144.811 13.5787 144.811 13.5098 144.811 13.441C144.733 12.1721 144.251 11.1148 143.366 10.2689C142.48 9.41312 141.413 8.98525 140.164 8.98525C138.875 8.98525 137.774 9.44262 136.859 10.3574C135.954 11.2721 135.502 12.3689 135.502 13.6475V21.1869H132.551V13.6475C132.551 12.2508 132.89 10.977 133.569 9.82623C134.257 8.67541 135.177 7.75574 136.328 7.06721C137.479 6.37869 138.757 6.03443 140.164 6.03443C141.423 6.03443 142.584 6.31475 143.646 6.87541C144.708 7.43607 145.589 8.19344 146.287 9.14754C146.995 8.19344 147.88 7.43607 148.943 6.87541C150.005 6.31475 151.166 6.03443 152.425 6.03443Z" fill="black"/>
<path d="M160.938 21.2164V6.03443H163.889V21.2164H160.938ZM160.938 2.8623V0.0590164H163.889V2.8623H160.938Z" fill="black"/>
<path d="M172.387 6.03443C173.793 6.03443 175.072 6.37869 176.223 7.06721C177.374 7.75574 178.289 8.67541 178.967 9.82623C179.656 10.977 180 12.2508 180 13.6475V21.1869H177.049V13.6475C177.049 12.3689 176.592 11.2721 175.677 10.3574C174.772 9.44262 173.675 8.98525 172.387 8.98525C171.108 8.98525 170.011 9.44262 169.097 10.3574C168.182 11.2721 167.725 12.3689 167.725 13.6475V21.1869H164.774V13.6475C164.774 12.2508 165.118 10.977 165.807 9.82623C166.495 8.67541 167.415 7.75574 168.566 7.06721C169.716 6.37869 170.99 6.03443 172.387 6.03443Z" fill="black"/>
</svg>
