<svg width="67" height="12" viewBox="0 0 67 12" fill="none" xmlns="http://www.w3.org/2000/svg">
<path d="M0 11.7693V0.23077H5.45605C9.28024 0.23077 11.9011 2.45605 11.9011 6.00001C11.9011 9.54397 9.28024 11.7693 5.45605 11.7693H0ZM3.26374 9.16485H5.32419C7.28573 9.16485 8.60441 7.99452 8.60441 6.00001C8.60441 4.0055 7.28573 2.83517 5.32419 2.83517H3.26374V9.16485Z" fill="black"/>
<path d="M22.0946 11.7693L21.1881 9.52749H16.3089L15.4023 11.7693H12.0727L17.1661 0.23077H20.3804L25.4903 11.7693H22.0946ZM17.265 7.12089H20.232L18.7485 3.42858L17.265 7.12089Z" fill="black"/>
<path d="M35.2837 5.75276C36.5859 6.2143 37.3936 7.20331 37.3936 8.60441C37.3936 10.5989 35.7452 11.7693 32.6463 11.7693H26.4155V0.23077H32.3166C35.3496 0.23077 36.8331 1.46704 36.8331 3.24726C36.8331 4.35166 36.2727 5.24177 35.2837 5.75276ZM31.8881 2.58792H29.6463V4.8132H31.8881C32.976 4.8132 33.5364 4.43407 33.5364 3.69231C33.5364 2.96704 32.976 2.58792 31.8881 2.58792ZM32.3826 9.41211C33.5035 9.41211 34.0969 9.03298 34.0969 8.24177C34.0969 7.45056 33.5035 7.07144 32.3826 7.07144H29.6463V9.41211H32.3826Z" fill="black"/>
<path d="M44.9027 12C41.2104 12 38.4906 9.46156 38.4906 6.00001C38.4906 2.53847 41.2104 0 44.9027 0C48.595 0 51.3148 2.53847 51.3148 6.00001C51.3148 9.46156 48.595 12 44.9027 12ZM44.9027 9.29672C46.65 9.29672 48.0181 7.99452 48.0181 6.00001C48.0181 4.0055 46.65 2.7033 44.9027 2.7033C43.1555 2.7033 41.7873 4.0055 41.7873 6.00001C41.7873 7.99452 43.1555 9.29672 44.9027 9.29672Z" fill="#FF2E98"/>
<path d="M66.4418 11.7693H63.4418L63.4089 5.65386L60.4418 10.6319H58.9913L56.0407 5.81869V11.7693H53.0242V0.23077H55.711L59.766 6.89012L63.722 0.23077H66.4089L66.4418 11.7693Z" fill="black"/>
</svg>
