<svg width="16" height="16" viewBox="0 0 16 16" fill="none" xmlns="http://www.w3.org/2000/svg">
<path d="M8 10.667C9.25155 10.667 11.1671 10.9859 12.7529 11.6211C13.5454 11.9385 14.2135 12.3192 14.6729 12.7432C15.1277 13.163 15.333 13.5799 15.333 14V15.333H0.666992V14C0.666992 13.5799 0.872306 13.163 1.32715 12.7432C1.78652 12.3192 2.45465 11.9385 3.24707 11.6211C4.83293 10.9859 6.74845 10.667 8 10.667ZM8 0.666992C9.84181 0.666992 11.333 2.15819 11.333 4C11.333 5.84181 9.84181 7.33301 8 7.33301C6.15819 7.33301 4.66699 5.84181 4.66699 4C4.66699 2.15819 6.15819 0.666992 8 0.666992Z" stroke="#6F6F6F" stroke-width="1.33333"/>
</svg>
